G04 EAGLE Gerber X2 export*
%TF.Part,Single*%
%TF.FileFunction,Copper,L1,Top,Mixed*%
%TF.FilePolarity,Positive*%
%TF.GenerationSoftware,Autodesk,EAGLE,8.7.1*%
%TF.CreationDate,2018-04-06T15:57:59Z*%
G75*
%MOMM*%
%FSLAX34Y34*%
%LPD*%
%AMOC8*
5,1,8,0,0,1.08239X$1,22.5*%
G01*
%ADD10C,1.422400*%
%ADD11P,1.649562X8X292.500000*%
%ADD12C,4.318000*%
%ADD13R,2.032000X2.032000*%
%ADD14C,2.032000*%
%ADD15P,1.649562X8X22.500000*%
%ADD16C,0.304800*%
%ADD17C,1.016000*%


D10*
X21590Y18288D02*
X21590Y32512D01*
X46990Y32512D02*
X46990Y18288D01*
X72390Y18288D02*
X72390Y32512D01*
X97790Y32512D02*
X97790Y18288D01*
X123190Y18288D02*
X123190Y32512D01*
X148590Y32512D02*
X148590Y18288D01*
X173990Y18288D02*
X173990Y32512D01*
X199390Y32512D02*
X199390Y18288D01*
D11*
X91440Y430530D03*
X116840Y430530D03*
X91440Y405130D03*
X116840Y405130D03*
X91440Y379730D03*
X116840Y379730D03*
X91440Y354330D03*
X116840Y354330D03*
X91440Y328930D03*
X116840Y328930D03*
X91440Y303530D03*
X116840Y303530D03*
X91440Y278130D03*
X116840Y278130D03*
X91440Y252730D03*
X116840Y252730D03*
D12*
X121760Y118110D03*
X61760Y118110D03*
X91760Y71110D03*
D13*
X161290Y167640D03*
D14*
X161290Y202640D03*
D15*
X48260Y457200D03*
D11*
X224790Y457200D03*
X250190Y457200D03*
X224790Y431800D03*
X250190Y431800D03*
X224790Y406400D03*
X250190Y406400D03*
X224790Y381000D03*
X250190Y381000D03*
X224790Y355600D03*
X250190Y355600D03*
X224790Y330200D03*
X250190Y330200D03*
X224790Y304800D03*
X250190Y304800D03*
X224790Y279400D03*
X250190Y279400D03*
X224790Y254000D03*
X250190Y254000D03*
X224790Y228600D03*
X250190Y228600D03*
X224790Y203200D03*
X250190Y203200D03*
X224790Y177800D03*
X250190Y177800D03*
X224790Y152400D03*
X250190Y152400D03*
X224790Y127000D03*
X250190Y127000D03*
X224790Y101600D03*
X250190Y101600D03*
X224790Y76200D03*
X250190Y76200D03*
D16*
X116840Y430530D02*
X134620Y444500D01*
X237490Y444500D01*
X250190Y457200D01*
D17*
X61760Y101110D02*
X91760Y71110D01*
X61760Y101110D02*
X61760Y118110D01*
X146290Y202640D01*
X161290Y202640D01*
X140970Y142240D02*
X121760Y118110D01*
X140970Y142240D02*
X161290Y167640D01*
D16*
X91440Y430530D02*
X115570Y457200D01*
X224790Y457200D01*
X135890Y431800D02*
X121920Y417830D01*
X104140Y417830D01*
X91440Y405130D01*
X135890Y431800D02*
X224790Y431800D01*
X237490Y419100D02*
X149860Y419100D01*
X123190Y392430D01*
X104140Y392430D01*
X91440Y379730D01*
X237490Y419100D02*
X250190Y431800D01*
X181610Y406400D02*
X119380Y381000D01*
X116840Y379730D01*
X181610Y406400D02*
X224790Y406400D01*
X104140Y367030D02*
X91440Y354330D01*
X104140Y367030D02*
X153670Y367030D01*
X218440Y393700D01*
X237490Y393700D01*
X250190Y406400D01*
X112000Y315214D02*
X105156Y308370D01*
X219635Y368046D02*
X237236Y368046D01*
X166803Y315214D02*
X112000Y315214D01*
X166803Y315214D02*
X219635Y368046D01*
X91440Y252730D02*
X81280Y252730D01*
X69850Y264160D01*
X69850Y283210D01*
X78486Y291846D01*
X96280Y291846D01*
X105156Y300722D01*
X105156Y308370D01*
X237236Y368046D02*
X250190Y381000D01*
X31750Y54610D02*
X46990Y25400D01*
X31750Y54610D02*
X24130Y67310D01*
X24130Y156210D01*
X47244Y299309D02*
X79152Y320695D01*
X91440Y328930D01*
X47244Y190754D02*
X24130Y156210D01*
X47244Y190754D02*
X47244Y299309D01*
X64770Y36830D02*
X72390Y25400D01*
X64770Y36830D02*
X59690Y43180D01*
X35560Y80010D01*
X58772Y284665D02*
X81280Y313236D01*
X35560Y151130D02*
X35560Y80010D01*
X81280Y313236D02*
X86360Y316230D01*
X104140Y316230D01*
X116840Y328930D01*
X58420Y186690D02*
X35560Y151130D01*
X58420Y284313D02*
X58772Y284665D01*
X58420Y284313D02*
X58420Y186690D01*
X123190Y71120D02*
X123190Y25400D01*
X123190Y71120D02*
X186690Y134620D01*
X186690Y233680D01*
X116840Y303530D01*
M02*
