G04 EAGLE Gerber X2 export*
%TF.Part,Single*%
%TF.FileFunction,Copper,L2,Bot,Mixed*%
%TF.FilePolarity,Positive*%
%TF.GenerationSoftware,Autodesk,EAGLE,8.7.1*%
%TF.CreationDate,2018-04-06T15:57:59Z*%
G75*
%MOMM*%
%FSLAX34Y34*%
%LPD*%
%AMOC8*
5,1,8,0,0,1.08239X$1,22.5*%
G01*
%ADD10C,1.422400*%
%ADD11P,1.649562X8X292.500000*%
%ADD12C,4.318000*%
%ADD13R,2.032000X2.032000*%
%ADD14C,2.032000*%
%ADD15P,1.649562X8X22.500000*%
%ADD16C,0.762000*%
%ADD17C,0.812800*%
%ADD18C,0.304800*%


D10*
X21590Y18288D02*
X21590Y32512D01*
X46990Y32512D02*
X46990Y18288D01*
X72390Y18288D02*
X72390Y32512D01*
X97790Y32512D02*
X97790Y18288D01*
X123190Y18288D02*
X123190Y32512D01*
X148590Y32512D02*
X148590Y18288D01*
X173990Y18288D02*
X173990Y32512D01*
X199390Y32512D02*
X199390Y18288D01*
D11*
X91440Y430530D03*
X116840Y430530D03*
X91440Y405130D03*
X116840Y405130D03*
X91440Y379730D03*
X116840Y379730D03*
X91440Y354330D03*
X116840Y354330D03*
X91440Y328930D03*
X116840Y328930D03*
X91440Y303530D03*
X116840Y303530D03*
X91440Y278130D03*
X116840Y278130D03*
X91440Y252730D03*
X116840Y252730D03*
D12*
X121760Y118110D03*
X61760Y118110D03*
X91760Y71110D03*
D13*
X161290Y167640D03*
D14*
X161290Y202640D03*
D15*
X48260Y457200D03*
D11*
X224790Y457200D03*
X250190Y457200D03*
X224790Y431800D03*
X250190Y431800D03*
X224790Y406400D03*
X250190Y406400D03*
X224790Y381000D03*
X250190Y381000D03*
X224790Y355600D03*
X250190Y355600D03*
X224790Y330200D03*
X250190Y330200D03*
X224790Y304800D03*
X250190Y304800D03*
X224790Y279400D03*
X250190Y279400D03*
X224790Y254000D03*
X250190Y254000D03*
X224790Y228600D03*
X250190Y228600D03*
X224790Y203200D03*
X250190Y203200D03*
X224790Y177800D03*
X250190Y177800D03*
X224790Y152400D03*
X250190Y152400D03*
X224790Y127000D03*
X250190Y127000D03*
X224790Y101600D03*
X250190Y101600D03*
X224790Y76200D03*
X250190Y76200D03*
D16*
X118110Y355600D02*
X142240Y368300D01*
X142240Y392430D01*
X116840Y405130D01*
X118110Y355600D02*
X116840Y354330D01*
X116840Y252730D02*
X203200Y252730D01*
X203200Y92710D01*
X167640Y306070D02*
X118110Y353060D01*
X167640Y306070D02*
X203200Y270510D01*
X203200Y252730D01*
X118110Y353060D02*
X116840Y354330D01*
D17*
X203200Y92710D02*
X219710Y76200D01*
X224790Y76200D01*
X250190Y76200D01*
D18*
X103124Y359170D02*
X96280Y366014D01*
X48260Y387350D02*
X48260Y457200D01*
X103124Y289814D02*
X91440Y278130D01*
X103124Y289814D02*
X103124Y359170D01*
X69850Y365760D02*
X48260Y387350D01*
X86600Y366014D02*
X96280Y366014D01*
X86600Y366014D02*
X69836Y365760D01*
X69850Y365760D01*
X67310Y283210D02*
X67565Y249011D01*
X68038Y185512D01*
X67310Y185420D01*
X67310Y283210D02*
X91440Y303530D01*
X67310Y185420D02*
X29210Y154940D01*
X68717Y54786D02*
X97790Y25400D01*
X68717Y54786D02*
X29210Y78740D01*
X29210Y154940D01*
X104140Y188161D02*
X153423Y141828D01*
X157234Y108008D02*
X148590Y25400D01*
X104140Y188161D02*
X104140Y266700D01*
X116840Y278130D01*
X153423Y141828D02*
X158504Y130396D01*
X157234Y108008D01*
M02*
