M48
;GenerationSoftware,Autodesk,EAGLE,8.7.1*%
;CreationDate,2018-04-06T16:04:37Z*%
FMAT,2
ICI,OFF
METRIC,TZ,000.000
T4C0.850
T3C1.016
T2C1.200
T1C2.997
%
G90
M71
T1
X6176Y11811
X9176Y7111
X12176Y11811
T2
X16129Y16764
X16129Y20264
T3
X9144Y35433
X25019Y15240
X22479Y12700
X25019Y12700
X22479Y10160
X25019Y10160
X22479Y7620
X25019Y45720
X9144Y43053
X11684Y43053
X9144Y40513
X11684Y40513
X9144Y37973
X11684Y37973
X25019Y7620
X11684Y35433
X9144Y32893
X11684Y32893
X9144Y30353
X11684Y30353
X9144Y27813
X11684Y27813
X9144Y25273
X11684Y25273
X4826Y45720
X22479Y45720
X22479Y15240
X22479Y43180
X25019Y43180
X22479Y40640
X25019Y40640
X22479Y38100
X25019Y38100
X22479Y35560
X25019Y35560
X22479Y33020
X25019Y33020
X22479Y30480
X25019Y30480
X22479Y27940
X25019Y27940
X22479Y25400
X25019Y25400
X22479Y22860
X25019Y22860
X22479Y20320
X25019Y20320
X22479Y17780
X25019Y17780
T4
X4699Y2540
X7239Y2540
X9779Y2540
X12319Y2540
X14859Y2540
X17399Y2540
X19939Y2540
X2159Y2540
M30