G04 EAGLE Gerber X2 export*
%TF.Part,Single*%
%TF.FileFunction,Profile,NP*%
%TF.FilePolarity,Positive*%
%TF.GenerationSoftware,Autodesk,EAGLE,8.7.1*%
%TF.CreationDate,2018-04-06T15:57:59Z*%
G75*
%MOMM*%
%FSLAX34Y34*%
%LPD*%
%AMOC8*
5,1,8,0,0,1.08239X$1,22.5*%
G01*
%ADD10C,0.254000*%


D10*
X0Y11430D02*
X-14Y10487D01*
X54Y9546D01*
X203Y8614D01*
X434Y7700D01*
X743Y6808D01*
X1129Y5947D01*
X1588Y5123D01*
X2117Y4343D01*
X2713Y3611D01*
X3370Y2934D01*
X4083Y2316D01*
X4848Y1764D01*
X5657Y1280D01*
X6506Y868D01*
X7388Y532D01*
X8295Y274D01*
X9222Y96D01*
X10160Y0D01*
X245110Y0D01*
X246438Y58D01*
X247756Y232D01*
X249054Y519D01*
X250322Y919D01*
X251551Y1428D01*
X252730Y2042D01*
X253851Y2756D01*
X254906Y3565D01*
X255886Y4464D01*
X256785Y5444D01*
X257594Y6499D01*
X258308Y7620D01*
X258922Y8799D01*
X259431Y10028D01*
X259831Y11296D01*
X260118Y12594D01*
X260292Y13912D01*
X260350Y15240D01*
X300990Y38100D01*
X300990Y462280D01*
X271780Y487680D01*
X29210Y487680D01*
X26717Y487627D01*
X24238Y487356D01*
X21793Y486871D01*
X19398Y486174D01*
X17074Y485271D01*
X14837Y484169D01*
X12705Y482877D01*
X10694Y481403D01*
X8818Y479760D01*
X7093Y477959D01*
X5532Y476015D01*
X4146Y473942D01*
X2946Y471757D01*
X1940Y469475D01*
X1138Y467114D01*
X544Y464692D01*
X164Y462228D01*
X0Y459740D01*
X0Y406400D01*
X27940Y375920D01*
X27940Y220980D01*
X0Y179070D01*
X0Y11430D01*
M02*
