G04 EAGLE Gerber X2 export*
%TF.Part,Single*%
%TF.FileFunction,Soldermask,Top,1*%
%TF.FilePolarity,Negative*%
%TF.GenerationSoftware,Autodesk,EAGLE,8.7.1*%
%TF.CreationDate,2018-04-06T15:57:59Z*%
G75*
%MOMM*%
%FSLAX34Y34*%
%LPD*%
%AMOC8*
5,1,8,0,0,1.08239X$1,22.5*%
G01*
%ADD10C,1.625600*%
%ADD11P,1.869504X8X292.500000*%
%ADD12C,4.521200*%
%ADD13R,2.235200X2.235200*%
%ADD14C,2.235200*%
%ADD15P,1.869504X8X22.500000*%


D10*
X21590Y18288D02*
X21590Y32512D01*
X46990Y32512D02*
X46990Y18288D01*
X72390Y18288D02*
X72390Y32512D01*
X97790Y32512D02*
X97790Y18288D01*
X123190Y18288D02*
X123190Y32512D01*
X148590Y32512D02*
X148590Y18288D01*
X173990Y18288D02*
X173990Y32512D01*
X199390Y32512D02*
X199390Y18288D01*
D11*
X91440Y430530D03*
X116840Y430530D03*
X91440Y405130D03*
X116840Y405130D03*
X91440Y379730D03*
X116840Y379730D03*
X91440Y354330D03*
X116840Y354330D03*
X91440Y328930D03*
X116840Y328930D03*
X91440Y303530D03*
X116840Y303530D03*
X91440Y278130D03*
X116840Y278130D03*
X91440Y252730D03*
X116840Y252730D03*
D12*
X121760Y118110D03*
X61760Y118110D03*
X91760Y71110D03*
D13*
X161290Y167640D03*
D14*
X161290Y202640D03*
D15*
X48260Y457200D03*
D11*
X224790Y457200D03*
X250190Y457200D03*
X224790Y431800D03*
X250190Y431800D03*
X224790Y406400D03*
X250190Y406400D03*
X224790Y381000D03*
X250190Y381000D03*
X224790Y355600D03*
X250190Y355600D03*
X224790Y330200D03*
X250190Y330200D03*
X224790Y304800D03*
X250190Y304800D03*
X224790Y279400D03*
X250190Y279400D03*
X224790Y254000D03*
X250190Y254000D03*
X224790Y228600D03*
X250190Y228600D03*
X224790Y203200D03*
X250190Y203200D03*
X224790Y177800D03*
X250190Y177800D03*
X224790Y152400D03*
X250190Y152400D03*
X224790Y127000D03*
X250190Y127000D03*
X224790Y101600D03*
X250190Y101600D03*
X224790Y76200D03*
X250190Y76200D03*
M02*
